<svg xmlns="http://www.w3.org/2000/svg" viewBox="0 0 234.36 219.33"><defs><style>.cls-1,.cls-3{fill:#fff;}.cls-2{fill:none;}.cls-3{font-size:12px;font-family:Panton-Bold, Panton Bold;font-weight:700;}</style></defs><title>Asset 1</title><g id="Layer_2" data-name="Layer 2"><g id="Layer_1-2" data-name="Layer 1"><path class="cls-1" d="M27,56.91S61.35,52.22,77.67,43V56.91Z"/><path class="cls-1" d="M76.67,40.64S35.37,45.78,0,39.28L7.49,56.59,0,70S8.17,75.15,24.5,74v-19S63.8,49.28,76.67,40.64Z"/><path class="cls-1" d="M207.39,56.76S173,52.08,156.69,42.86V56.76Z"/><path class="cls-1" d="M157.69,40.49s41.31,5.14,76.67-1.36l-7.49,17.3,7.49,13.37s-8.18,5.2-24.5,4.08v-19S170.56,49.13,157.69,40.49Z"/><path class="cls-1" d="M197.52,115.91a2.34,2.34,0,1,0,2.34,2.34A2.34,2.34,0,0,0,197.52,115.91Zm0,3.94a1.6,1.6,0,1,1,1.6-1.6A1.6,1.6,0,0,1,197.52,119.86Z"/><path class="cls-1" d="M211.43,117.36a2.11,2.11,0,0,1-1.38,0v-.27c0-.2-.23-.36-.51-.36s-.51.16-.51.36v.65h-.45a11,11,0,0,0-2.8-6.82l.34-.34.46.46c.14.14.41.09.61-.11s.24-.47.11-.61l-.19-.19a2.12,2.12,0,0,1,.95-1s4.46-2.27,2.73-4-4,2.73-4,2.73a2.12,2.12,0,0,1-1,.95l-.19-.19c-.14-.14-.41-.09-.61.11a.46.46,0,0,0-.11.61l.46.46-.33.33a11,11,0,0,0-7-2.9v-.48h.65c.2,0,.36-.23.36-.51s-.16-.51-.36-.51h-.26a2.12,2.12,0,0,1,0-1.39s1.55-4.76-.89-4.76-.89,4.76-.89,4.76a2.1,2.1,0,0,1,0,1.39h-.26c-.2,0-.35.23-.35.51s.16.51.35.51H197v.48a11,11,0,0,0-6.9,2.88l-.3-.3.46-.46c.14-.14.09-.41-.11-.61s-.47-.25-.61-.1l-.19.19a2.1,2.1,0,0,1-1-.95s-2.27-4.46-4-2.74,2.74,4,2.74,4a2.13,2.13,0,0,1,.95,1l-.19.19c-.14.14-.09.41.11.61s.47.25.61.11l.46-.46.31.31a11,11,0,0,0-2.82,6.85H186v-.65c0-.2-.23-.36-.5-.36s-.51.16-.51.36v.27a2.12,2.12,0,0,1-1.38,0s-4.76-1.55-4.76.9,4.76.9,4.76.9a2.11,2.11,0,0,1,1.38,0v.26c0,.2.23.35.51.35s.5-.16.5-.35v-.65h.47a11,11,0,0,0,2.79,6.81l-.35.35-.46-.46a.46.46,0,0,0-.61.11c-.2.2-.25.47-.11.61l.19.18a2.12,2.12,0,0,1-.95,1s-4.46,2.27-2.74,4,4-2.73,4-2.73a2.13,2.13,0,0,1,1-.95l.19.18c.14.14.41.09.61-.11s.25-.47.1-.61l-.46-.46.34-.34a11,11,0,0,0,6.94,2.92v.48h-.65c-.2,0-.36.23-.36.51s.16.51.36.51h.26a2.1,2.1,0,0,1,0,1.38s-1.55,4.76.89,4.76.89-4.76.89-4.76a2.14,2.14,0,0,1,0-1.38h.26c.2,0,.36-.23.36-.51s-.16-.51-.36-.51h-.65v-.48a11,11,0,0,0,6.91-2.87l.29.29-.46.46a.45.45,0,0,0,.11.61c.2.2.47.25.61.11l.19-.19a2.13,2.13,0,0,1,1,1s2.27,4.46,4,2.74-2.73-4-2.73-4a2.1,2.1,0,0,1-.95-1l.19-.19c.14-.14.09-.41-.11-.61a.46.46,0,0,0-.61-.11L206,126l-.3-.29a11,11,0,0,0,2.83-6.86H209v.65c0,.2.22.35.51.35s.51-.16.51-.35v-.26a2.1,2.1,0,0,1,1.38,0s4.76,1.55,4.76-.9S211.43,117.36,211.43,117.36Zm-13.37-6.14h.12c.11,0,.2-.17.2-.38s-.09-.38-.2-.38h-.12v-.62a8.41,8.41,0,0,1,5.09,2.13l-.45.45-.09-.08c-.08-.08-.26,0-.41.13s-.21.34-.13.41l.09.09-.84.84a.34.34,0,0,0-.46,0L199.68,115a3.88,3.88,0,0,0-1.31-.56v-1.68a.35.35,0,0,0-.32-.35Zm-1.1-1.39v.62h-.12c-.11,0-.2.17-.2.38s.09.38.2.38H197v1.18a.35.35,0,0,0-.32.35v1.69a3.88,3.88,0,0,0-1.25.53l-1.15-1.15a.34.34,0,0,0-.47,0l-.84-.84.09-.08c.08-.08,0-.26-.13-.41s-.33-.21-.41-.13l-.08.09-.48-.48A8.41,8.41,0,0,1,197,109.83Zm-5.81,2.89.47.47-.09.09c-.08.08,0,.26.13.41s.33.21.41.13l.08-.09.84.84a.34.34,0,0,0,0,.46l1.17,1.17a3.87,3.87,0,0,0-.49,1.19H192a.34.34,0,0,0-.34.32h-1.19v-.12c0-.11-.17-.2-.38-.2s-.38.09-.38.2v.12h-.63A8.39,8.39,0,0,1,191.15,112.72Zm.31,10.51.08.09-.43.43a8.39,8.39,0,0,1-2-4.95h.63v.12c0,.11.17.2.38.2s.38-.09.38-.2v-.12h1.19a.34.34,0,0,0,.34.32h1.68a4,4,0,0,0,.46,1.14h0l-1.21,1.21a.34.34,0,0,0,0,.46l-.84.84-.08-.08c-.08-.08-.26,0-.41.13S191.38,123.15,191.46,123.23Zm5.5,2.06h-.12c-.11,0-.2.17-.2.38s.09.38.2.38H197v.63a8.43,8.43,0,0,1-5.08-2.14l.44-.44.09.08c.08.08.26,0,.41-.13s.21-.33.13-.41l-.09-.08.84-.84a.34.34,0,0,0,.46,0l1.18-1.18a3.93,3.93,0,0,0,1.3.56v1.68a.35.35,0,0,0,.32.34Zm.56-4.45a2.59,2.59,0,1,1,2.59-2.58A2.59,2.59,0,0,1,197.52,120.84Zm.54,5.84v-.63h.12c.11,0,.2-.17.2-.38s-.09-.38-.2-.38h-.12v-1.18a.34.34,0,0,0,.32-.34v-1.68a3.89,3.89,0,0,0,1.26-.53l1.14,1.14a.35.35,0,0,0,.47,0l.84.84-.08.08c-.08.08,0,.26.13.41s.33.21.41.13l.09-.08.49.49A8.4,8.4,0,0,1,198.06,126.68Zm5.83-2.88-.49-.48.08-.09c.08-.08,0-.26-.13-.41s-.33-.21-.41-.13l-.08.08-.84-.84a.34.34,0,0,0,0-.46l-1.15-1.15a4,4,0,0,0,.5-1.2H203a.35.35,0,0,0,.34-.32h1.18v.12c0,.11.17.2.38.2s.38-.09.38-.2v-.12h.65A8.39,8.39,0,0,1,203.88,123.8Zm1.41-6.1v-.12c0-.11-.17-.2-.38-.2s-.38.09-.38.2v.12h-1.18a.35.35,0,0,0-.34-.32h-1.65a4,4,0,0,0-.47-1.16l1.2-1.2a.35.35,0,0,0,0-.47l.84-.84.09.09c.08.08.26,0,.41-.13s.21-.33.13-.41l-.09-.09.45-.44a8.41,8.41,0,0,1,2,5Z"/><path class="cls-1" d="M33.89,115.92a2.34,2.34,0,1,0,2.34,2.34A2.35,2.35,0,0,0,33.89,115.92Zm0,3.94a1.6,1.6,0,1,1,1.6-1.6A1.6,1.6,0,0,1,33.89,119.86Z"/><path class="cls-1" d="M47.8,117.36a2.11,2.11,0,0,1-1.38,0v-.26c0-.2-.23-.35-.51-.35s-.51.16-.51.35v.65h-.45a11,11,0,0,0-2.8-6.82l.34-.34.46.46a.54.54,0,0,0,.72-.72l-.19-.19a2.12,2.12,0,0,1,.95-1s4.46-2.27,2.74-4-4,2.74-4,2.74a2.12,2.12,0,0,1-1,.95L42,108.6c-.14-.14-.41-.09-.61.11a.45.45,0,0,0-.11.61l.46.46-.33.33a11,11,0,0,0-7-2.91v-.48h.65c.2,0,.36-.23.36-.51s-.16-.51-.36-.51h-.26a2.13,2.13,0,0,1,0-1.38s1.55-4.76-.89-4.76-.89,4.76-.89,4.76a2.14,2.14,0,0,1,0,1.38h-.27c-.2,0-.36.22-.36.51s.16.51.36.51h.65v.48a11,11,0,0,0-6.9,2.88l-.3-.3.46-.46c.14-.14.09-.41-.11-.61s-.47-.25-.61-.11l-.19.19a2.13,2.13,0,0,1-1-.95s-2.27-4.46-4-2.74,2.74,4,2.74,4a2.13,2.13,0,0,1,.95,1l-.19.19c-.14.14-.09.41.11.61s.47.25.61.11l.46-.46.31.31a11,11,0,0,0-2.82,6.84h-.47v-.65c0-.2-.23-.35-.51-.35s-.51.16-.51.35v.26a2.11,2.11,0,0,1-1.38,0s-4.76-1.55-4.76.89,4.76.9,4.76.9a2.11,2.11,0,0,1,1.38,0v.26c0,.2.23.36.51.36s.51-.16.51-.36v-.65h.47a11,11,0,0,0,2.78,6.81l-.35.35-.46-.46c-.14-.14-.41-.09-.61.11a.45.45,0,0,0-.11.61l.19.19a2.12,2.12,0,0,1-.95,1s-4.46,2.27-2.74,4,4-2.74,4-2.74a2.11,2.11,0,0,1,1-.95l.19.18c.14.14.41.09.61-.1a.46.46,0,0,0,.11-.61l-.46-.46.34-.34a11,11,0,0,0,6.94,2.92v.48h-.65c-.2,0-.36.23-.36.51s.16.51.36.51h.26a2.12,2.12,0,0,1,0,1.38s-1.55,4.77.89,4.77.89-4.77.89-4.77a2.12,2.12,0,0,1,0-1.38h.26c.2,0,.36-.23.36-.51s-.16-.51-.36-.51h-.65v-.48a11,11,0,0,0,6.91-2.87l.29.29-.46.46c-.14.14-.09.41.11.61s.47.25.61.11l.19-.19a2.13,2.13,0,0,1,1,.95s2.27,4.46,4,2.73-2.73-4-2.73-4a2.13,2.13,0,0,1-1-1l.19-.18c.14-.14.09-.41-.11-.61a.46.46,0,0,0-.61-.11l-.46.46-.29-.29a11,11,0,0,0,2.83-6.86h.45v.65c0,.2.23.36.51.36s.51-.16.51-.36v-.26a2.1,2.1,0,0,1,1.38,0s4.76,1.55,4.76-.9S47.8,117.36,47.8,117.36Zm-13.37-6.15h.12c.11,0,.2-.17.2-.38s-.09-.38-.2-.38h-.12v-.62A8.41,8.41,0,0,1,39.52,112l-.45.45-.09-.08c-.08-.08-.26,0-.41.13s-.21.33-.13.41l.09.08-.84.84a.34.34,0,0,0-.47,0L36.05,115a3.89,3.89,0,0,0-1.31-.55v-1.68a.34.34,0,0,0-.32-.34Zm-1.1-1.38v.62h-.12c-.11,0-.2.17-.2.38s.09.38.2.38h.12v1.18a.34.34,0,0,0-.32.34v1.69a3.92,3.92,0,0,0-1.25.53l-1.15-1.15a.35.35,0,0,0-.47,0l-.84-.84.09-.08c.07-.08,0-.26-.13-.41s-.33-.21-.41-.13l-.08.08-.48-.48A8.41,8.41,0,0,1,33.33,109.83Zm-5.81,2.89.47.47-.09.09c-.08.08,0,.26.13.41s.33.21.41.13l.08-.09.84.84a.34.34,0,0,0,0,.46l1.16,1.17a3.82,3.82,0,0,0-.49,1.18H28.39a.34.34,0,0,0-.34.32H26.86v-.12c0-.11-.17-.2-.38-.2s-.38.09-.38.2v.12h-.63A8.41,8.41,0,0,1,27.52,112.72Zm.31,10.51.08.09-.43.43a8.41,8.41,0,0,1-2-4.95h.63v.12c0,.11.17.2.38.2s.38-.09.38-.2v-.12H28a.35.35,0,0,0,.34.32h1.67a3.91,3.91,0,0,0,.46,1.14h0l-1.21,1.21a.34.34,0,0,0,0,.46l-.84.84-.09-.08c-.07-.08-.26,0-.41.13S27.75,123.16,27.83,123.23Zm5.5,2.06h-.12c-.11,0-.2.17-.2.38s.09.38.2.38h.12v.63a8.41,8.41,0,0,1-5.08-2.14l.44-.44.08.08c.08.08.26,0,.41-.13s.21-.33.13-.41l-.08-.08.84-.84a.34.34,0,0,0,.46,0l1.18-1.18a3.94,3.94,0,0,0,1.3.56v1.68a.34.34,0,0,0,.32.34Zm.56-4.45a2.59,2.59,0,1,1,2.59-2.59A2.59,2.59,0,0,1,33.89,120.85Zm.54,5.84v-.63h.12c.11,0,.2-.17.2-.38s-.09-.38-.2-.38h-.12v-1.18a.34.34,0,0,0,.32-.34v-1.68a3.85,3.85,0,0,0,1.26-.53l1.14,1.14a.35.35,0,0,0,.47,0l.84.84-.09.08c-.08.08,0,.26.13.41s.33.21.41.13l.09-.08.49.49A8.43,8.43,0,0,1,34.43,126.69Zm5.83-2.88-.49-.49.08-.09c.08-.07,0-.26-.13-.41s-.33-.21-.41-.13l-.08.08-.84-.84a.34.34,0,0,0,0-.47l-1.15-1.15a3.93,3.93,0,0,0,.5-1.21h1.65a.34.34,0,0,0,.34-.32H40.9v.12c0,.11.17.2.38.2s.38-.09.38-.2v-.12h.66A8.41,8.41,0,0,1,40.26,123.81Zm1.41-6.1v-.12c0-.11-.17-.2-.38-.2s-.38.09-.38.2v.12H39.72a.34.34,0,0,0-.34-.32H37.72a3.88,3.88,0,0,0-.47-1.16l1.2-1.2a.34.34,0,0,0,0-.46l.84-.84.09.08c.08.08.26,0,.41-.13s.21-.33.13-.41l-.09-.08.45-.44a8.42,8.42,0,0,1,2,5Z"/><path class="cls-2" d="M117,22.47c0-2.43-.9-2.6-2-2.6s-2,.17-2,2.6V58h4Z"/><path class="cls-2" d="M113,151.61a23.72,23.72,0,0,0-9.48-2.71c-7.12-.61-15.64-1.09-21.6-5.31-1.83-1.3-6.2-4.86-6.68-7.37,1.31,12.7,23.91,18.34,23.91,18.34A42,42,0,0,1,117,170.19V158.05c0-.06,0-.11,0-.16s0-.19,0-.29V92.28h-4Z"/><path class="cls-2" d="M114.83,83c0,.65.42,1,1.4,1A6.11,6.11,0,0,0,117,84V73.38c-.52,2.3-1.17,4.9-1.86,7.7A9.09,9.09,0,0,0,114.83,83Z"/><path class="cls-2" d="M125.45,70.11a4.23,4.23,0,0,1-1.7,3.65v2.32A6.87,6.87,0,0,0,129,69.67c0-2.95-2-4.09-5.22-4.3v2.17A2.41,2.41,0,0,1,125.45,70.11Z"/><path class="cls-2" d="M105.82,80.4a4,4,0,0,1-1.24.86c-.28,0-.23-.56-.21-1.07a21,21,0,0,1,.91-3.31c.49-1.56,1.49-3.36,1.17-4.95-.3-1.4-2-1-2.75-.79-5.83,1-4.5-.63-4.48-1.24-1-.21-2.89,2.82-.7,3.64a6.47,6.47,0,0,1-1.73,4.27,2,2,0,0,0,1.94-.4,6.8,6.8,0,0,0,1.47-1.91,12.78,12.78,0,0,0,.84-2,12.14,12.14,0,0,0,2.05-.19c.3,0,.21.19.07.65s-1.19,3.52-1.42,4.36a18.86,18.86,0,0,0-.79,3.22,1.78,1.78,0,0,0,2,2.22c1.24,0,3.29-1.54,4.06-3.1C107.92,78.79,107.52,78.63,105.82,80.4Z"/><path class="cls-2" d="M83.35,70.49a6.37,6.37,0,0,0-.86.07A2.82,2.82,0,0,1,83,72.05,8.52,8.52,0,0,1,81.71,76a38,38,0,0,1-3.15,4.85c0-.54,0-1,0-1.59a50.35,50.35,0,0,0-.3-6.09C78.19,71.7,77.61,71,76.63,71a5.1,5.1,0,0,0-2.61.86c.51.4.75,1.38,1.07,3.27a48.66,48.66,0,0,1,.72,7.51c0,.4,0,.89,0,1.21a1.75,1.75,0,0,0,.49,0c2.64,0,4.69-2.64,7.07-6.32C85,75,85.77,73.19,85.77,72.19,85.77,70.93,85,70.49,83.35,70.49Z"/><path class="cls-2" d="M91.19,78.12c3.15-1.12,5.2-3.15,5.2-4.74S95.48,71,93.52,71a7.39,7.39,0,0,0-5.65,2.87,9,9,0,0,0-2.33,6.51c.12,2.4,1.68,3.59,4.41,3.59a8.66,8.66,0,0,0,3.69-.79,4.46,4.46,0,0,0,1.75-1.26A1.66,1.66,0,0,0,95.53,80a6.68,6.68,0,0,1-4.13,2.05A2.36,2.36,0,0,1,89.16,81a2.3,2.3,0,0,1-.26-1.35C88.93,79.05,90.44,78.37,91.19,78.12ZM89.37,77c.68-2.89,1.73-4.5,3-4.5.84,0,1.12.7.89,1.52a3.73,3.73,0,0,1-2.15,2.4c-.86.47-1.56.77-2,1.63C89.28,77.42,89.37,77,89.37,77Z"/><path class="cls-2" d="M66.8,69.27c0-2.73-2.29-3.94-5.81-3.94-2.94,0-5.55.63-6,2.08a1.26,1.26,0,0,1,.77,1.21,13.11,13.11,0,0,1-.35,2.4c-.63,3.1-1.75,7.26-2.61,11.11a6.22,6.22,0,0,0-.09.86c0,.75.37,1,1.14,1,.09,0,2.5-.19,2.5-.58s-.12-.68-.12-1.35a56.86,56.86,0,0,1,1.35-6.84,2.47,2.47,0,0,0,.77.19,53.61,53.61,0,0,0,2.85,6.63c.75,1.38,1.42,2,2.68,2a2.86,2.86,0,0,0,2.78-1.45c-1.26-.65-2.94-1.7-5.2-7.42C64.63,74.29,66.8,72.19,66.8,69.27ZM58.8,74c-.35,0-.89,0-.89-.49a2.83,2.83,0,0,1,.07-.4c.28-1.49.72-3,1-4.39a.69.69,0,0,0,0-.23.33.33,0,0,0-.28-.37c0-.63.19-.91,1.8-.91,1.84,0,2.89.84,2.89,2.54C63.39,72.42,61.57,74,58.8,74Z"/><path class="cls-2" d="M70.86,69.9c1.35-.28,1.33-.26,2.36-1.84a6.15,6.15,0,0,0,.93-1.77,1.23,1.23,0,0,0,0-.28c0-.35-.4-.61-1.12-.61a8.81,8.81,0,0,0-3.17.58.91.91,0,0,1,.12.33c0,.93-.37,2.26-.37,2.94C69.63,69.62,69.88,70.11,70.86,69.9Z"/><path class="cls-2" d="M176.32,83.93a8.66,8.66,0,0,0,3.69-.79,4.47,4.47,0,0,0,1.75-1.26A1.66,1.66,0,0,0,181.9,80a6.67,6.67,0,0,1-4.13,2.05A2.37,2.37,0,0,1,175.53,81a2.3,2.3,0,0,1-.26-1.35c0-.61,1.54-1.28,2.29-1.54,3.15-1.12,5.2-3.15,5.2-4.74S181.85,71,179.89,71a7.39,7.39,0,0,0-5.65,2.87,9,9,0,0,0-2.33,6.51C172,82.74,173.59,83.93,176.32,83.93ZM175.74,77c.68-2.89,1.73-4.5,3-4.5.84,0,1.12.7.89,1.52a3.73,3.73,0,0,1-2.15,2.4c-.86.47-1.56.77-2,1.63C175.65,77.42,175.74,77,175.74,77Z"/><path class="cls-2" d="M71.94,80.57c-.47.44-.86.82-1.14.82s-.26-.54-.26-1a16.07,16.07,0,0,1,.35-2.82c.14-.65.56-2.12.91-3.43.12-.42.19-.79.26-1.17a1.33,1.33,0,0,0-.28-1.21,1.61,1.61,0,0,0-1.17-.37,6.85,6.85,0,0,0-2.33.49A2,2,0,0,1,68.62,73a6.44,6.44,0,0,1-.12,1.26c-.16.86-.37,2.24-.77,3.64a12.57,12.57,0,0,0-.47,3.76c.09,1.45.84,2.15,2.08,2.15s3.1-1.45,3.76-3a3.87,3.87,0,0,0,.37-1.26C73.48,79.14,73,79.45,71.94,80.57Z"/><path class="cls-2" d="M117.24,17.47a9,9,0,0,1,4.56,1.13,6.61,6.61,0,1,0-9.12,0A9,9,0,0,1,117.24,17.47Z"/><path class="cls-2" d="M162.27,110.56c-2.28,10.57-11.58,20.34-11.58,20.34,6.69-2.86,11.39-11.25,11.39-11.25C163.91,113.51,162.27,110.56,162.27,110.56Z"/><path class="cls-2" d="M72.15,110.61s-6.07,8.41-5.25,23.53c0,0,1.8-10.08,5.56-13.91C72.45,120.22,72.07,113.91,72.15,110.61Z"/><path class="cls-2" d="M93.64,43.81c-4.18-.3-6.84,1.64-4.8,5.89A2.09,2.09,0,0,0,89,50c-.62-2.37-.1-4.68,2.72-4.8,5.65.25,17.91-.08,17.91-1.42C109.62,43.78,95.51,43.95,93.64,43.81Z"/><path class="cls-2" d="M117,2.06c-5-.18-10.12,3-11.39,8a10.73,10.73,0,0,0,1,9,12.82,12.82,0,0,0,3.89,4.06C102.73,15.79,107,4.07,117,2.06Z"/><path class="cls-2" d="M128.93,83.9h.26c1.54-.07,3.24-1.54,5-4.39a16.05,16.05,0,0,0-.12,1.89c0,1.68.79,2.47,2.08,2.47,1.66,0,4.13-2.54,4.13-4.25a.24.24,0,0,0,0-.17l.45-.32a4.88,4.88,0,0,1-.09.61,10.43,10.43,0,0,0-.21,2,1.9,1.9,0,0,0,2.08,2.12A6.71,6.71,0,0,0,147,81a13.23,13.23,0,0,0,.66-1.16c0,.26,0,.52-.05.78,0,1.91.65,3.29,2.52,3.29h.26c1.54-.07,3.24-1.54,5-4.39a16.06,16.06,0,0,0-.12,1.89c0,1.68.79,2.47,2.08,2.47s3.42-1.85,4-3.46c.16,2.33,1.56,3.5,4.17,3.5,2,0,5.74-1.21,5.74-3.22a1.59,1.59,0,0,0-.19-.79A5.87,5.87,0,0,1,166.66,82c-1.26,0-1.77-1.21-1.77-2.64,0-4.22,1.47-6.77,3.43-6.77.93,0,1.35.47,1.66,1.82,1.26-.4,2.19-1.1,2.19-2S171.23,71,169.23,71c-4.15,0-7.66,4-7.93,8.48-.24,0-.69.4-1.38,1.15-.44.44-.77.77-1.14.82s-.26-.51-.26-1c0-1.8,1.42-7.56,2.29-8.84a4.46,4.46,0,0,0-2.08-.56,2,2,0,0,0-1.47.61A3.63,3.63,0,0,0,155,71c-3.42,0-6.63,4.24-7.26,8.4h0a10.72,10.72,0,0,0-2.1,1.42,2.9,2.9,0,0,1-1.73.58c-.23,0-.23-.51-.23-1a27.83,27.83,0,0,1,.58-3.27c.07-.23.12-.47.16-.68l0-.14a20.66,20.66,0,0,0,2.4-4A13,13,0,0,0,147.87,69a5.3,5.3,0,0,0,0-.82,4.4,4.4,0,0,0-.07-.84.64.64,0,0,0-.19-.35,3.57,3.57,0,0,0-2-.72,1.81,1.81,0,0,0-1.14.3,2.15,2.15,0,0,0-.79,1c-1.1,3.64-2.12,7.4-3,11.08l-.21.19c-.37.32-.68.6-.89.8a8.47,8.47,0,0,0-.93.9c-.44.44-.77.77-1.14.82s-.26-.51-.26-1c0-1.8,1.42-7.56,2.29-8.84a4.46,4.46,0,0,0-2.08-.56,2,2,0,0,0-1.47.61,3.63,3.63,0,0,0-2.29-.65c-3.76,0-7.28,5.13-7.37,9.64C126.41,82.53,127.06,83.9,128.93,83.9Zm25.81-11.18a1.88,1.88,0,0,1,1.87,1.35,25.21,25.21,0,0,1-2.73,5.23c-.91,1.35-1.61,2.15-2.1,2.15s-.72-.4-.77-1.21C151,77.21,152.87,72.73,154.74,72.73Zm-9-1.21q.46-1.57,1.05-3.15A2.19,2.19,0,0,1,147,68a.22.22,0,0,1,.42.12,5.68,5.68,0,0,1,0,.86,11.37,11.37,0,0,1-1,3.1,17,17,0,0,1-1.63,3C145.05,73.85,145.38,72.66,145.75,71.51Zm-12.2,1.21a1.88,1.88,0,0,1,1.87,1.35,25.22,25.22,0,0,1-2.73,5.23c-.91,1.35-1.61,2.15-2.1,2.15s-.72-.4-.77-1.21C129.81,77.21,131.68,72.73,133.55,72.73Z"/><path class="cls-1" d="M113,22.47c0-2.43.9-2.6,2-2.6s2,.17,2,2.6V58h6.75V53.7h19.53c2.68,0,4.86-2.52,4.86-5.64s-2.17-5.64-4.86-5.64H123.75V26a13.83,13.83,0,1,0-13,0v16.4H91.2c-2.68,0-4.86,2.53-4.86,5.64s2.17,5.64,4.86,5.64h19.53V58H113ZM91.71,45.2c-2.83.12-3.34,2.42-2.72,4.8a2.09,2.09,0,0,1-.14-.3c-2-4.24.61-6.19,4.8-5.89,1.87.14,16,0,16,0C109.62,45.12,97.36,45.45,91.71,45.2ZM106.6,19a10.73,10.73,0,0,1-1-9c1.28-5,6.38-8.18,11.39-8-10,2-14.27,13.73-6.5,21A12.82,12.82,0,0,1,106.6,19Zm4-5.21A6.61,6.61,0,1,1,121.8,18.6a9.73,9.73,0,0,0-9.12,0A6.57,6.57,0,0,1,110.63,13.83Z"/><path class="cls-1" d="M117,92.28V157.6c0,.1,0,.19,0,.29s0,.1,0,.16v12.14a42,42,0,0,0-17.87-15.63s-22.6-5.64-23.91-18.34c.47,2.51,4.85,6.07,6.68,7.37,6,4.22,14.48,4.7,21.6,5.31a23.72,23.72,0,0,1,9.48,2.71V92.28h-2.24v37.47c0,14-21.68,9-21.68,9a20.4,20.4,0,0,1-12.84-9.86c5.29,5.25,13.7,5.66,13.7,5.66a80.36,80.36,0,0,1-16.84-28.72c-14.31,17.75-5.71,37.42-5.71,37.42a107.11,107.11,0,0,1,3.31-12.66c1.16,17.79,16.11,22.6,16.11,22.6,26.76,10.37,30.44,25.71,30.44,25.71h0s3.68-15.33,30.44-25.71c0,0,14.95-4.8,16.11-22.6a106.69,106.69,0,0,1,3.32,12.66s8.61-19.67-5.71-37.42a80.38,80.38,0,0,1-16.84,28.72s8.41-.41,13.71-5.66a20.4,20.4,0,0,1-12.84,9.86s-21.68,5-21.68-9h0V92.28ZM66.89,134.13c-.82-15.12,5.25-23.53,5.25-23.53-.08,3.3.3,9.61.3,9.61C68.69,124.05,66.89,134.13,66.89,134.13Zm83.8-3.23s9.3-9.77,11.58-20.34c0,0,1.64,3-.19,9.09C162.08,119.65,157.38,128,150.69,130.9Z"/><path class="cls-1" d="M147.38,68.95a5.68,5.68,0,0,0,0-.86A.22.22,0,0,0,147,68a2.19,2.19,0,0,0-.19.4q-.59,1.57-1.05,3.15c-.37,1.14-.7,2.33-1,3.5a17,17,0,0,0,1.63-3A11.37,11.37,0,0,0,147.38,68.95Z"/><path class="cls-1" d="M91.1,76.44A3.73,3.73,0,0,0,93.24,74c.23-.82,0-1.52-.89-1.52-1.26,0-2.31,1.61-3,4.5,0,0-.09.4-.23,1C89.53,77.21,90.23,76.9,91.1,76.44Z"/><path class="cls-1" d="M130.58,81.45c.49,0,1.19-.79,2.1-2.15a25.22,25.22,0,0,0,2.73-5.23,1.88,1.88,0,0,0-1.87-1.35c-1.87,0-3.73,4.48-3.73,7.51C129.86,81.06,130.09,81.45,130.58,81.45Z"/><path class="cls-1" d="M60.5,67.24c-1.61,0-1.8.28-1.8.91a.33.33,0,0,1,.28.37.69.69,0,0,1,0,.23c-.26,1.38-.7,2.89-1,4.39a2.83,2.83,0,0,0-.07.4c0,.47.54.49.89.49,2.78,0,4.6-1.61,4.6-4.25C63.39,68.08,62.34,67.24,60.5,67.24Z"/><path class="cls-1" d="M151.77,81.45c.49,0,1.19-.79,2.1-2.15a25.21,25.21,0,0,0,2.73-5.23,1.88,1.88,0,0,0-1.87-1.35c-1.87,0-3.73,4.48-3.73,7.51C151,81.06,151.28,81.45,151.77,81.45Z"/><path class="cls-1" d="M125.45,70.11a2.41,2.41,0,0,0-1.7-2.58v6.23A4.23,4.23,0,0,0,125.45,70.11Z"/><path class="cls-1" d="M123.75,58H27V92.28H207.51V58ZM69.88,66a8.81,8.81,0,0,1,3.17-.58c.72,0,1.1.26,1.12.61a1.23,1.23,0,0,1,0,.28,6.15,6.15,0,0,1-.93,1.77c-1,1.59-1,1.56-2.36,1.84-1,.21-1.24-.28-1.24-.65,0-.68.4-2,.37-2.94A.91.91,0,0,0,69.88,66ZM66.61,82.64a2.86,2.86,0,0,1-2.78,1.45c-1.26,0-1.94-.65-2.68-2a53.61,53.61,0,0,1-2.85-6.63,2.47,2.47,0,0,1-.77-.19,56.86,56.86,0,0,0-1.35,6.84c0,.68.12,1,.12,1.35s-2.4.58-2.5.58c-.77,0-1.14-.28-1.14-1a6.22,6.22,0,0,1,.09-.86c.86-3.85,2-8,2.61-11.11a13.11,13.11,0,0,0,.35-2.4,1.26,1.26,0,0,0-.77-1.21c.49-1.45,3.1-2.08,6-2.08,3.52,0,5.81,1.21,5.81,3.94,0,2.92-2.17,5-5.39,5.95C63.67,80.94,65.35,82,66.61,82.64Zm6.49-1.77c-.65,1.52-2.54,3-3.76,3s-2-.7-2.08-2.15a12.57,12.57,0,0,1,.47-3.76c.4-1.4.61-2.78.77-3.64A6.44,6.44,0,0,0,68.62,73a2,2,0,0,0-.35-1.17,6.85,6.85,0,0,1,2.33-.49,1.61,1.61,0,0,1,1.17.37A1.33,1.33,0,0,1,72.05,73c-.07.37-.14.75-.26,1.17-.35,1.31-.77,2.78-.91,3.43a16.07,16.07,0,0,0-.35,2.82c0,.47,0,1,.26,1s.68-.37,1.14-.82c1-1.12,1.54-1.42,1.54-1A3.87,3.87,0,0,1,73.1,80.87Zm3.15,3.06a1.75,1.75,0,0,1-.49,0c0-.33,0-.82,0-1.21a48.66,48.66,0,0,0-.72-7.51c-.33-1.89-.56-2.87-1.07-3.27A5.1,5.1,0,0,1,76.63,71c1,0,1.56.68,1.66,2.12a50.35,50.35,0,0,1,.3,6.09c0,.54,0,1.05,0,1.59A38,38,0,0,0,81.71,76,8.52,8.52,0,0,0,83,72.05a2.82,2.82,0,0,0-.54-1.49,6.37,6.37,0,0,1,.86-.07c1.68,0,2.43.44,2.43,1.7,0,1-.77,2.82-2.45,5.41C80.94,81.29,78.89,83.93,76.25,83.93ZM89.16,81a2.36,2.36,0,0,0,2.24,1.07A6.68,6.68,0,0,0,95.53,80a1.66,1.66,0,0,1-.14,1.84,4.46,4.46,0,0,1-1.75,1.26,8.66,8.66,0,0,1-3.69.79c-2.73,0-4.29-1.19-4.41-3.59a9,9,0,0,1,2.33-6.51A7.39,7.39,0,0,1,93.52,71c2,0,2.89.84,2.87,2.43s-2.05,3.62-5.2,4.74c-.75.26-2.26.93-2.29,1.54A2.3,2.3,0,0,0,89.16,81Zm17.83-.3c-.77,1.56-2.82,3.1-4.06,3.1a1.78,1.78,0,0,1-2-2.22,18.86,18.86,0,0,1,.79-3.22c.23-.84,1.28-3.87,1.42-4.36s.23-.7-.07-.65a12.14,12.14,0,0,1-2.05.19,12.78,12.78,0,0,1-.84,2,6.8,6.8,0,0,1-1.47,1.91,2,2,0,0,1-1.94.4,6.47,6.47,0,0,0,1.73-4.27c-2.19-.82-.28-3.85.7-3.64,0,.61-1.35,2.24,4.48,1.24.77-.19,2.45-.61,2.75.79.33,1.59-.68,3.38-1.17,4.95a21,21,0,0,0-.91,3.31c0,.51-.07,1.1.21,1.07a4,4,0,0,0,1.24-.86C107.52,78.63,107.92,78.79,107,80.71Zm14.31-4.27c-.68,0-.91-.82-.91-1.68,0-.09,0-.09.21-.09a5.36,5.36,0,0,0,3.16-.9V67.53a5.31,5.31,0,0,0-1.69-.24,7.17,7.17,0,0,0-1.07.14,2.56,2.56,0,0,1,.21,1,6.81,6.81,0,0,1-.19,1.35c-.65,3-1.4,5.74-2,8.73a20.45,20.45,0,0,0-.49,3.62,3.24,3.24,0,0,0,.23,1.28A4.55,4.55,0,0,1,117,84a6.11,6.11,0,0,1-.77.05c-1,0-1.4-.37-1.4-1a9.09,9.09,0,0,1,.3-2c.69-2.8,1.34-5.4,1.86-7.7.29-1.27.54-2.44.72-3.5a9.35,9.35,0,0,0,.16-1.33c0-.89-.77-.09-.77-.93,0-.61.12-1,.37-1.19a12,12,0,0,1,5.11-1.1c.4,0,.78,0,1.15,0,3.18.21,5.22,1.35,5.22,4.3a6.87,6.87,0,0,1-5.22,6.41A8.69,8.69,0,0,1,121.29,76.44ZM166.66,82A5.87,5.87,0,0,0,171,79.91a1.59,1.59,0,0,1,.19.79c0,2-3.76,3.22-5.74,3.22-2.61,0-4-1.17-4.17-3.5-.56,1.6-2.56,3.46-4,3.46s-2.08-.79-2.08-2.47a16.06,16.06,0,0,1,.12-1.89c-1.75,2.85-3.45,4.32-5,4.39h-.26c-1.87,0-2.52-1.38-2.52-3.29,0-.26,0-.52.05-.78A13.23,13.23,0,0,1,147,81a6.71,6.71,0,0,1-4.55,2.85,1.9,1.9,0,0,1-2.08-2.12,10.43,10.43,0,0,1,.21-2,4.88,4.88,0,0,0,.09-.61l-.45.32a.24.24,0,0,1,0,.17c0,1.7-2.47,4.25-4.13,4.25-1.28,0-2.08-.79-2.08-2.47a16.05,16.05,0,0,1,.12-1.89c-1.75,2.85-3.45,4.32-5,4.39h-.26c-1.87,0-2.52-1.38-2.52-3.29.09-4.5,3.62-9.64,7.37-9.64a3.63,3.63,0,0,1,2.29.65,2,2,0,0,1,1.47-.61,4.46,4.46,0,0,1,2.08.56c-.86,1.28-2.29,7-2.29,8.84,0,.47,0,1,.26,1s.7-.37,1.14-.82a8.47,8.47,0,0,1,.93-.9c.21-.2.53-.48.89-.8l.21-.19c.86-3.69,1.89-7.44,3-11.08a2.15,2.15,0,0,1,.79-1,1.81,1.81,0,0,1,1.14-.3,3.57,3.57,0,0,1,2,.72.64.64,0,0,1,.19.35,4.4,4.4,0,0,1,.07.84,5.3,5.3,0,0,1,0,.82,13,13,0,0,1-1.05,3.29,20.66,20.66,0,0,1-2.4,4l0,.14c0,.21-.09.44-.16.68a27.83,27.83,0,0,0-.58,3.27c0,.47,0,1,.23,1a2.9,2.9,0,0,0,1.73-.58,10.72,10.72,0,0,1,2.1-1.42h0c.63-4.16,3.84-8.4,7.26-8.4a3.63,3.63,0,0,1,2.29.65,2,2,0,0,1,1.47-.61,4.46,4.46,0,0,1,2.08.56c-.86,1.28-2.29,7-2.29,8.84,0,.47,0,1,.26,1s.7-.37,1.14-.82c.69-.76,1.14-1.12,1.38-1.15.27-4.43,3.78-8.48,7.93-8.48,2,0,2.94.49,2.94,1.47s-.93,1.59-2.19,2c-.3-1.35-.72-1.82-1.66-1.82-2,0-3.43,2.54-3.43,6.77C164.89,80.78,165.4,82,166.66,82Zm8.87-1a2.37,2.37,0,0,0,2.24,1.07A6.67,6.67,0,0,0,181.9,80a1.66,1.66,0,0,1-.14,1.84A4.47,4.47,0,0,1,180,83.13a8.66,8.66,0,0,1-3.69.79c-2.73,0-4.29-1.19-4.41-3.59a9,9,0,0,1,2.33-6.51A7.39,7.39,0,0,1,179.89,71c2,0,2.89.84,2.87,2.43s-2.05,3.62-5.2,4.74c-.75.26-2.26.93-2.29,1.54A2.3,2.3,0,0,0,175.53,81Z"/><path class="cls-1" d="M177.47,76.44a3.73,3.73,0,0,0,2.15-2.4c.23-.82,0-1.52-.89-1.52-1.26,0-2.31,1.61-3,4.5,0,0-.09.4-.23,1C175.9,77.21,176.6,76.9,177.47,76.44Z"/><text class="cls-3" transform="translate(103.63 193.67)">2017</text><path class="cls-1" d="M60.72,180.26l-15.79,4.13,12.77-8.61L55.85,173l-15.72,4.23,12.7-8.84c-.16-.28-.32-.57-.52-.86C50,164.08,44.72,162,41.95,163.9c-1.5,1-1.49,2.16-.52,3.6a3.52,3.52,0,0,1,1.22-1.25,5.39,5.39,0,0,1,6.91.26l-14.25,9.61,2.07,3.07,13.41-3-10.62,7.16,2.08,3.09,19.46-4.68Z"/><path class="cls-1" d="M109.29,217.31c-1.21-.08-1.78-.52-1.67-2.23,0-.3.07-.65.12-1,3,0,5.94-2,6.13-4.91.08-1.26-.36-2.44-2.6-2.6-5-.34-7.07,5.27-7.36,8.23l-.75-.17c-.83,1.15-1.47,1.94-2.55,1.69a.91.91,0,0,1-.75-1.25c.31-1.37,2.17-4.08,2.62-6.06a2.54,2.54,0,0,0-2.09-3.39,4,4,0,0,0-3.89,1.31,2.38,2.38,0,0,0-2-2.69,3.89,3.89,0,0,0-3.31.72l.56-1.21-3.53-.81-1.31,2.85a6.11,6.11,0,0,1-2.47-.31.62.62,0,0,1-.24-.15c1-2.44.58-4.12-1.42-5-4.45-1.86-8.14,2.25-9.54,5l-.46-.27c-1.81.61-3.41,1-5.13,0-1-.6-1.37-1.25-.51-2.74,1.4-2.42,5.12-5.59,6.49-4.79.41.24.41.7.09,1.25a4.47,4.47,0,0,1-1,1.14,1.63,1.63,0,0,0,.61.7c.63.36,1.46.15,2.08-.92s.68-2.28-1.26-3.4c-4.08-2.36-8.2,1.2-10,3.75l-.32-.24a2.76,2.76,0,0,1-3.14.46c-.57-.42-.7-.79-.29-1.36a3.52,3.52,0,0,1,.56-.59L71.32,189,68,187.24l-9.61,8.6-.09.09-.54-.49c-1.9.21-3.54.21-5-1.13-.89-.82-1.07-1.52.09-2.78.2-.22.46-.47.72-.71,2.35,1.91,5.9,2.12,7.86,0,.85-.93,1.24-2.14-.41-3.65-3.81-3.49-9.11-.11-11.06,2s-1.55,4,.2,5.6c2.39,2.19,5.42,2,8,1.31a7.19,7.19,0,0,0-.87,1c-1.25,1.71-.82,3.14.4,4,1,.71,2.92,1.59,5.84.06-1.06,2.21-.26,3.84,1.65,4.94,2.71,1.57,5.53.83,7.85-.32l-.08.18c-1.11,2.65,0,4.32,2.18,5.22,2.85,1.2,6.3-.53,8.47-4.67a9.83,9.83,0,0,0,2.83.27l-3.63,7.85,3.54.8,3.46-7.5c.65-1.14,1.55-2,2.51-1.83.54.12.61.71.49,1.25a2.49,2.49,0,0,1-.21.6L88.85,216l3.53.81,3.46-7.5c.65-1.14,1.54-2,2.43-1.82.59.13.78.64.6,1.45-.36,1.57-2.15,4.34-2.53,6a2.67,2.67,0,0,0,2.26,3.43c1.24.28,3.12.21,5.28-3-.06,2.62,1.39,3.8,3.66,4,3.34.22,5.63-2,7.22-4.18l-.85-.06C112.55,216.42,111.27,217.44,109.29,217.31Zm2.1-9.39c.48,0,.6.44.56,1.07a4.22,4.22,0,0,1-3.92,3.9C108.69,210.43,110.1,207.83,111.38,207.92ZM60.27,188.27c.35.32.19.72-.23,1.19a4.22,4.22,0,0,1-5.5.6C56.6,188.56,59.33,187.4,60.27,188.27Zm22.38,15.31a1.38,1.38,0,0,0-1.25,1,.94.94,0,0,0,.22,1.24c-1.52,2.58-3.58,4.18-4.72,3.7-.88-.37-1-.84-.4-2.37,1-2.28,4.17-5.92,5.82-5.23C82.94,202.11,83,202.58,82.65,203.57Z"/><path class="cls-1" d="M143.19,213.5a.91.91,0,0,1-1.22-.8c-.33-1.37.15-4.61-.32-6.6a2.55,2.55,0,0,0-3.38-2.12,3.73,3.73,0,0,0-2.54,2.05l0-1.34-3.53.84.08,3.41a5.94,5.94,0,0,1-2.18.83.6.6,0,0,1-.28,0c-.27-2.63-1.47-3.9-3.62-3.68-5.16.53-6.24,6.72-5.94,9.6s2.09,3.78,4.42,3.54c3.08-.32,5.28-3.48,5.2-8.15a9.9,9.9,0,0,0,2.43-1l.2,8.34,3.53-.84-.2-8.25c.08-1.31.49-2.5,1.37-2.71.59-.14,1,.23,1.18,1,.37,1.57,0,4.84.38,6.51a2.67,2.67,0,0,0,3.55,2.08c1.3-.31,3.06-1.27,3.48-5.61l-1,.25C144.5,212.26,144.27,213.25,143.19,213.5Zm-17.78,3.36c-1,.1-1.32-.24-1.49-1.9-.25-2.45.83-7.19,2.61-7.38.65-.07.94.31,1.1,1.35a1.39,1.39,0,0,0-.64,1.43c0,.5.25.91.78,1C127.68,214.35,126.64,216.74,125.41,216.86Z"/><path class="cls-1" d="M154.33,198.09a3.61,3.61,0,0,0-1.57,1.52l-1.3-5.65-3.16,2,2.89,12.57a6.2,6.2,0,0,0,.45,1.37c.85,1.83,2.46,2.41,4.56,1.43,4.84-2.26,3.9-8,2.66-10.63C157.48,197.84,155.92,197.35,154.33,198.09Zm2.1,10.47c-.82.38-1.39.18-1.7-.49a2.36,2.36,0,0,1-.17-.56l-1.45-6.38c.11-.41.84-.89,1.15-1,.82-.38,1.71.51,2.23,1.62C157.6,204.12,157.91,207.87,156.43,208.56Z"/><path class="cls-1" d="M182.12,178.14c.47-.59,1.33,1,2.21-.1a1.86,1.86,0,0,0-2.86-2.38,4.89,4.89,0,0,0-.68,3.35l-1-1.23-2.26,2.83,5.38,6.57-.77.7c.57,1.19.81,2.46.08,3.12a.94.94,0,0,1-1.49-.11,3.53,3.53,0,0,1-.47-.66l-4.42-7.55-2.68,2.44.69,1.17-.12-.13c-.49-.54-1.31-.54-2.37.42-1.7,1.55-1.92,3.78-1.43,5.91a6.13,6.13,0,0,1-1.67,1.9.63.63,0,0,1-.26.11c-1.44-2.22-3.08-2.8-4.9-1.62-4.35,2.82-2.5,8.82-.92,11.25s3.58,2.42,5.54,1.14c2.6-1.68,3.12-5.5.92-9.63a9.84,9.84,0,0,0,1.64-1.92,11.71,11.71,0,0,0,2.21,3.74c2,2.22,3.94,1.9,5.2.75a4.56,4.56,0,0,0,1.22-4.24,2.31,2.31,0,0,0,3.38.05c1-.91,2.29-2.83.63-6.79l2.74,3.34,2.26-2.83-6.21-7.55A2.59,2.59,0,0,1,182.12,178.14Zm-14.79,24.66c-.8.52-1.28.38-2.19-1-1.34-2.07-2.54-6.78-1-7.75.55-.35,1-.16,1.6.71a1.38,1.38,0,0,0,.09,1.57c.27.42.63.7,1.14.52C168.2,199.54,168.36,202.14,167.33,202.81Zm9.93-7.52c-.34.3-1,.83-2.25-.61-1.59-1.75-3.62-6-2-7.47a1,1,0,0,1,1.41,0l2.93,5A2.54,2.54,0,0,1,177.26,195.28Z"/><path class="cls-1" d="M196.43,166.39l-.52.92c.91,1,1.4,2,.92,2.87-.35.61-.71.79-1.32.44a3.46,3.46,0,0,1-.65-.49l-10.38-9.23-1.4,3.49,4.42,3.93-.09,0c-.63-.36-1.41-.11-2.12,1.14-2.16,3.81,1.51,8.3,4.46,10,2.6,1.48,4.33.58,5.18-.91a4.47,4.47,0,0,0-.17-4.38,2.31,2.31,0,0,0,3.1-1.07C198.52,171.83,199.29,169.66,196.43,166.39Zm-2.83,9.45c-.22.39-.64,1.08-2.33.12-2.05-1.17-5.31-4.61-4.25-6.47a1,1,0,0,1,1.28-.46l4.4,3.92.11.06A2.48,2.48,0,0,1,193.61,175.84Z"/></g></g></svg>